# MagicaVoxel @ Ephtracy

# group
o 

# material
mtllib untitled.mtl
usemtl palette

# normals
vn -1 0 0
vn 1 0 0
vn 0 0 1
vn 0 0 -1
vn 0 -1 0
vn 0 1 0

# texcoords
vt 0.701172 0.5
vt 0.888672 0.5
vt 0.900391 0.5

# verts
v -2 0 2
v -2 0 -2
v -2 2.2 1
v -2 2.2 0.7
v -2 2.6 -0.2
v -2 2.6 -0.8
v -2 2.7 2
v -2 2.7 1.4
v -2 2.8 -1.6
v -2 2.8 -2
v -2 2.9 0.7
v -2 2.9 0.3
v -2 3.3 -0.8
v -2 3.3 -1.1
v -2 3.6 1.4
v -2 3.6 1
v -2 3.6 0.3
v -2 3.6 -0.2
v -2 3.6 -1.1
v -2 3.6 -1.6
v -2 4 2
v -2 4 -2
v 2 0 2
v 2 0 -2
v 2 2.4 -0.2
v 2 2.4 -0.4
v 2 2.4 -1.2
v 2 2.4 -1.5
v 2 2.5 2
v 2 2.5 1.9
v 2 2.7 -0.4
v 2 2.7 -0.6
v 2 2.8 1.9
v 2 2.8 1.2
v 2 2.8 -0.9
v 2 2.8 -1.2
v 2 2.9 0.4
v 2 2.9 0.2
v 2 3.1 -1.7
v 2 3.1 -2
v 2 3.2 0.6
v 2 3.2 0.4
v 2 3.6 1.2
v 2 3.6 0.6
v 2 3.6 0.2
v 2 3.6 -0.2
v 2 3.6 -0.6
v 2 3.6 -0.9
v 2 3.6 -1.5
v 2 3.6 -1.7
v 2 4 2
v 2 4 -2
v -2 0 2
v -2 2.7 2
v -2 4 2
v -1.5 2.7 2
v -1.5 3.2 2
v -1.1 3.2 2
v -1.1 3.6 2
v -0.7 2.7 2
v -0.7 3.6 2
v -0.4 2.7 2
v -0.4 3.6 2
v 2.38419e-07 3.4 2
v 2.38419e-07 3.6 2
v 0.3 3.4 2
v 0.3 3.6 2
v 0.6 2.6 2
v 0.6 3.6 2
v 1.2 2.6 2
v 1.2 3.6 2
v 1.6 2.8 2
v 1.6 3.6 2
v 1.7 2.5 2
v 1.7 2.8 2
v 2 0 2
v 2 2.5 2
v 2 4 2
v -2 0 -2
v -2 2.8 -2
v -2 4 -2
v -1.5 2.8 -2
v -1.5 3.6 -2
v -0.7 3.2 -2
v -0.7 3.6 -2
v -0.4 3.2 -2
v -0.4 3.6 -2
v 0.1 2.4 -2
v 0.1 3.6 -2
v 0.5 2.4 -2
v 0.5 2.9 -2
v 1.3 2.9 -2
v 1.3 3.6 -2
v 1.9 3.1 -2
v 1.9 3.6 -2
v 2 0 -2
v 2 3.1 -2
v 2 4 -2
v -2 0 2
v 2 0 2
v -2 0 -2
v 2 0 -2
v -2 4 2
v 2 4 2
v 2.38419e-07 4 1.6
v 0.9 4 1.6
v -1.4 4 1.2
v -0.9 4 1.2
v 2.38419e-07 4 1.2
v 0.9 4 1.2
v -1.4 4 1
v -0.9 4 1
v -0.2 4 0.7
v 0.1 4 0.7
v -0.2 4 0.6
v 0.1 4 0.6
v 0.9 4 0.5
v 1.4 4 0.5
v 0.9 4 0.2
v 1.4 4 0.2
v 1.9 4 0.2
v -0.9 4 -2.38419e-07
v -0.2 4 -2.38419e-07
v 1.4 4 -0.1
v 1.9 4 -0.1
v -0.9 4 -0.2
v -0.2 4 -0.2
v 0.5 4 -0.2
v -1.4 4 -0.5
v -0.7 4 -0.5
v -0.2 4 -0.5
v 0.5 4 -0.5
v 0.9 4 -0.6
v 1.2 4 -0.6
v -1.4 4 -0.7
v -0.7 4 -0.7
v 0.9 4 -0.8
v 1.2 4 -0.8
v -1 4 -1.3
v -0.4 4 -1.3
v -1 4 -1.4
v -0.4 4 -1.4
v 1 4 -1.4
v 1.7 4 -1.4
v 1 4 -1.6
v 1.7 4 -1.6
v -2 4 -2
v 2 4 -2

# faces
f 3/1/1 2/1/1 1/1/1
f 4/1/1 2/1/1 3/1/1
f 5/1/1 2/1/1 4/1/1
f 6/1/1 2/1/1 5/1/1
f 7/1/1 3/1/1 1/1/1
f 8/1/1 3/1/1 7/1/1
f 9/1/1 2/1/1 6/1/1
f 10/1/1 2/1/1 9/1/1
f 11/2/1 4/2/1 3/2/1
f 11/1/1 5/1/1 4/1/1
f 12/1/1 5/1/1 11/1/1
f 13/2/1 6/2/1 5/2/1
f 13/1/1 9/1/1 6/1/1
f 14/1/1 9/1/1 13/1/1
f 15/1/1 3/1/1 8/1/1
f 15/2/1 8/2/1 7/2/1
f 16/2/1 12/2/1 11/2/1
f 16/1/1 3/1/1 15/1/1
f 16/2/1 11/2/1 3/2/1
f 17/1/1 5/1/1 12/1/1
f 17/2/1 12/2/1 16/2/1
f 18/2/1 14/2/1 13/2/1
f 18/1/1 5/1/1 17/1/1
f 18/2/1 13/2/1 5/2/1
f 19/1/1 9/1/1 14/1/1
f 19/2/1 14/2/1 18/2/1
f 20/2/1 10/2/1 9/2/1
f 20/1/1 9/1/1 19/1/1
f 21/2/1 18/2/1 17/2/1
f 21/2/1 19/2/1 18/2/1
f 21/2/1 20/2/1 19/2/1
f 21/2/1 15/2/1 7/2/1
f 21/2/1 17/2/1 16/2/1
f 21/2/1 16/2/1 15/2/1
f 22/2/1 10/2/1 20/2/1
f 22/2/1 20/2/1 21/2/1
f 23/1/2 24/1/2 25/1/2
f 25/1/2 24/1/2 26/1/2
f 26/1/2 24/1/2 27/1/2
f 27/1/2 24/1/2 28/1/2
f 23/1/2 25/1/2 29/1/2
f 29/1/2 25/1/2 30/1/2
f 25/2/2 26/2/2 31/2/2
f 26/1/2 27/1/2 31/1/2
f 31/1/2 27/1/2 32/1/2
f 30/1/2 25/1/2 33/1/2
f 29/2/2 30/2/2 33/2/2
f 33/1/2 25/1/2 34/1/2
f 32/1/2 27/1/2 35/1/2
f 27/2/2 28/2/2 36/2/2
f 35/1/2 27/1/2 36/1/2
f 34/1/2 25/1/2 37/1/2
f 37/1/2 25/1/2 38/1/2
f 28/1/2 24/1/2 39/1/2
f 39/1/2 24/1/2 40/1/2
f 34/1/2 37/1/2 41/1/2
f 37/2/2 38/2/2 42/2/2
f 41/1/2 37/1/2 42/1/2
f 33/2/2 34/2/2 43/2/2
f 34/1/2 41/1/2 43/1/2
f 41/2/2 42/2/2 44/2/2
f 43/1/2 41/1/2 44/1/2
f 38/1/2 25/1/2 45/1/2
f 44/2/2 42/2/2 45/2/2
f 42/2/2 38/2/2 45/2/2
f 31/2/2 32/2/2 46/2/2
f 45/1/2 25/1/2 46/1/2
f 25/2/2 31/2/2 46/2/2
f 32/1/2 35/1/2 47/1/2
f 46/2/2 32/2/2 47/2/2
f 35/2/2 36/2/2 48/2/2
f 47/1/2 35/1/2 48/1/2
f 36/2/2 28/2/2 49/2/2
f 48/2/2 36/2/2 49/2/2
f 28/1/2 39/1/2 49/1/2
f 39/2/2 40/2/2 50/2/2
f 49/1/2 39/1/2 50/1/2
f 43/2/2 44/2/2 51/2/2
f 47/2/2 48/2/2 51/2/2
f 49/2/2 50/2/2 51/2/2
f 44/2/2 45/2/2 51/2/2
f 46/2/2 47/2/2 51/2/2
f 48/2/2 49/2/2 51/2/2
f 29/2/2 33/2/2 51/2/2
f 33/2/2 43/2/2 51/2/2
f 45/2/2 46/2/2 51/2/2
f 50/2/2 40/2/2 52/2/2
f 51/2/2 50/2/2 52/2/2
f 56/1/3 54/1/3 53/1/3
f 56/2/3 55/2/3 54/2/3
f 57/2/3 55/2/3 56/2/3
f 58/1/3 57/1/3 56/1/3
f 58/2/3 55/2/3 57/2/3
f 59/2/3 55/2/3 58/2/3
f 60/1/3 56/1/3 53/1/3
f 60/1/3 58/1/3 56/1/3
f 60/1/3 59/1/3 58/1/3
f 61/2/3 55/2/3 59/2/3
f 61/1/3 59/1/3 60/1/3
f 62/1/3 60/1/3 53/1/3
f 62/2/3 61/2/3 60/2/3
f 63/2/3 55/2/3 61/2/3
f 63/2/3 61/2/3 62/2/3
f 64/1/3 63/1/3 62/1/3
f 65/2/3 55/2/3 63/2/3
f 65/1/3 63/1/3 64/1/3
f 66/1/3 64/1/3 62/1/3
f 66/2/3 65/2/3 64/2/3
f 67/2/3 55/2/3 65/2/3
f 67/2/3 65/2/3 66/2/3
f 68/1/3 62/1/3 53/1/3
f 68/1/3 66/1/3 62/1/3
f 68/1/3 67/1/3 66/1/3
f 69/2/3 55/2/3 67/2/3
f 69/1/3 67/1/3 68/1/3
f 70/1/3 68/1/3 53/1/3
f 70/2/3 69/2/3 68/2/3
f 71/2/3 55/2/3 69/2/3
f 71/2/3 69/2/3 70/2/3
f 72/1/3 71/1/3 70/1/3
f 73/2/3 55/2/3 71/2/3
f 73/1/3 71/1/3 72/1/3
f 74/1/3 70/1/3 53/1/3
f 74/1/3 72/1/3 70/1/3
f 75/2/3 73/2/3 72/2/3
f 75/1/3 72/1/3 74/1/3
f 76/1/3 74/1/3 53/1/3
f 77/2/3 75/2/3 74/2/3
f 77/1/3 74/1/3 76/1/3
f 78/2/3 55/2/3 73/2/3
f 78/2/3 75/2/3 77/2/3
f 78/2/3 73/2/3 75/2/3
f 79/1/4 80/1/4 82/1/4
f 80/2/4 81/2/4 82/2/4
f 82/2/4 81/2/4 83/2/4
f 82/1/4 83/1/4 84/1/4
f 83/2/4 81/2/4 85/2/4
f 84/1/4 83/1/4 85/1/4
f 82/1/4 84/1/4 86/1/4
f 84/2/4 85/2/4 86/2/4
f 85/2/4 81/2/4 87/2/4
f 86/2/4 85/2/4 87/2/4
f 79/1/4 82/1/4 88/1/4
f 82/1/4 86/1/4 88/1/4
f 86/1/4 87/1/4 88/1/4
f 87/2/4 81/2/4 89/2/4
f 88/1/4 87/1/4 89/1/4
f 79/1/4 88/1/4 90/1/4
f 88/2/4 89/2/4 90/2/4
f 90/2/4 89/2/4 91/2/4
f 90/1/4 91/1/4 92/1/4
f 91/2/4 89/2/4 92/2/4
f 89/2/4 81/2/4 93/2/4
f 92/2/4 89/2/4 93/2/4
f 92/1/4 93/1/4 94/1/4
f 93/2/4 81/2/4 95/2/4
f 94/1/4 93/1/4 95/1/4
f 90/1/4 92/1/4 96/1/4
f 79/1/4 90/1/4 96/1/4
f 92/1/4 94/1/4 96/1/4
f 94/2/4 95/2/4 97/2/4
f 96/1/4 94/1/4 97/1/4
f 95/2/4 81/2/4 98/2/4
f 97/2/4 95/2/4 98/2/4
f 101/1/5 100/1/5 99/1/5
f 102/1/5 100/1/5 101/1/5
f 103/2/6 104/2/6 105/2/6
f 105/2/6 104/2/6 106/2/6
f 103/2/6 105/2/6 107/2/6
f 107/2/6 105/2/6 108/2/6
f 105/3/6 106/3/6 109/3/6
f 108/2/6 105/2/6 109/2/6
f 106/2/6 104/2/6 110/2/6
f 109/3/6 106/3/6 110/3/6
f 107/3/6 108/3/6 111/3/6
f 103/2/6 107/2/6 111/2/6
f 108/2/6 109/2/6 112/2/6
f 111/3/6 108/3/6 112/3/6
f 109/2/6 110/2/6 112/2/6
f 111/2/6 112/2/6 113/2/6
f 112/2/6 110/2/6 113/2/6
f 113/2/6 110/2/6 114/2/6
f 111/2/6 113/2/6 115/2/6
f 113/3/6 114/3/6 115/3/6
f 114/2/6 110/2/6 116/2/6
f 115/3/6 114/3/6 116/3/6
f 110/2/6 104/2/6 117/2/6
f 116/2/6 110/2/6 117/2/6
f 115/2/6 116/2/6 117/2/6
f 117/2/6 104/2/6 118/2/6
f 115/2/6 117/2/6 119/2/6
f 117/3/6 118/3/6 119/3/6
f 118/2/6 104/2/6 120/2/6
f 119/3/6 118/3/6 120/3/6
f 120/2/6 104/2/6 121/2/6
f 111/2/6 115/2/6 122/2/6
f 115/2/6 119/2/6 122/2/6
f 119/2/6 120/2/6 122/2/6
f 122/2/6 120/2/6 123/2/6
f 120/3/6 121/3/6 124/3/6
f 123/2/6 120/2/6 124/2/6
f 121/2/6 104/2/6 125/2/6
f 124/3/6 121/3/6 125/3/6
f 122/3/6 123/3/6 126/3/6
f 111/2/6 122/2/6 126/2/6
f 123/2/6 124/2/6 127/2/6
f 126/3/6 123/3/6 127/3/6
f 124/2/6 125/2/6 127/2/6
f 127/2/6 125/2/6 128/2/6
f 103/2/6 111/2/6 129/2/6
f 111/2/6 126/2/6 129/2/6
f 126/2/6 127/2/6 129/2/6
f 129/2/6 127/2/6 130/2/6
f 127/3/6 128/3/6 131/3/6
f 130/2/6 127/2/6 131/2/6
f 128/2/6 125/2/6 132/2/6
f 131/3/6 128/3/6 132/3/6
f 130/2/6 131/2/6 133/2/6
f 132/2/6 125/2/6 133/2/6
f 131/2/6 132/2/6 133/2/6
f 133/2/6 125/2/6 134/2/6
f 103/2/6 129/2/6 135/2/6
f 129/3/6 130/3/6 135/3/6
f 130/2/6 133/2/6 136/2/6
f 135/3/6 130/3/6 136/3/6
f 133/3/6 134/3/6 137/3/6
f 136/2/6 133/2/6 137/2/6
f 135/2/6 136/2/6 137/2/6
f 134/2/6 125/2/6 138/2/6
f 137/3/6 134/3/6 138/3/6
f 135/2/6 137/2/6 139/2/6
f 137/2/6 138/2/6 139/2/6
f 139/2/6 138/2/6 140/2/6
f 135/2/6 139/2/6 141/2/6
f 139/3/6 140/3/6 141/3/6
f 140/2/6 138/2/6 142/2/6
f 141/3/6 140/3/6 142/3/6
f 142/2/6 138/2/6 143/2/6
f 138/2/6 125/2/6 144/2/6
f 143/2/6 138/2/6 144/2/6
f 142/2/6 143/2/6 145/2/6
f 141/2/6 142/2/6 145/2/6
f 143/3/6 144/3/6 145/3/6
f 144/2/6 125/2/6 146/2/6
f 145/3/6 144/3/6 146/3/6
f 141/2/6 145/2/6 147/2/6
f 103/2/6 135/2/6 147/2/6
f 145/2/6 146/2/6 147/2/6
f 135/2/6 141/2/6 147/2/6
f 146/2/6 125/2/6 148/2/6
f 147/2/6 146/2/6 148/2/6
f 125/2/6 104/2/6 148/2/6
